<svg id="Layer_1" enable-background="new 0 0 512 512" height="512" viewBox="0 0 512 512" width="512" xmlns="http://www.w3.org/2000/svg"><g><path d="m401.14 444.78c-.97 3.15-3.88 5.29-7.17 5.29h-275.94c-3.29 0-6.2-2.14-7.17-5.29-1.01-3.26-24.27-80.67 9.75-139.16 13.16-22.62 33.05-39.19 59.31-49.48l-75.9-99.16c-6.49-45.2 6.1-87.09 6.84-89.48.97-3.14 3.88-5.29 7.17-5.29h275.94c3.29 0 6.2 2.15 7.17 5.29.66 2.14 10.82 35.94 8.28 75.43l-72.93 106.75c0 .01 0 .01-.01.02l-4.4 6.44s0 0 .01.01c26.26 10.28 46.14 26.85 59.3 49.47 34.02 58.49 10.76 135.9 9.75 139.16z" fill="#f6f4f9"/><path d="m401.14 444.78c-.97 3.15-3.88 5.29-7.17 5.29h-32.99c37.8-102.97-28.09-192.83-28.89-193.92 26.26 10.28 46.14 26.85 59.3 49.47 34.02 58.49 10.76 135.9 9.75 139.16z" fill="#e9e4f2"/><path d="m409.42 142.93-72.93 106.75c52.11-78.79 37.82-153.92 26.96-187.47h30.52c3.29 0 6.2 2.15 7.17 5.29.66 2.14 10.82 35.94 8.28 75.43z" fill="#e9e4f2"/><path d="m379.365 443.51c-.209-3.613-2.968-6.561-6.56-7.009-19.354-2.413-21.568-9.197-25.237-20.437-2.961-9.071-6.646-20.36-20.334-28.783-14.323-8.813-36.958-12.918-71.234-12.918s-56.911 4.105-71.234 12.918c-13.688 8.422-17.373 19.711-20.334 28.783-3.669 11.24-5.883 18.024-25.237 20.437-3.592.448-6.351 3.396-6.56 7.009s2.191 6.86 5.707 7.719l115.878 28.316c.585.143 1.183.214 1.78.214s1.195-.071 1.78-.214l115.878-28.316c3.516-.859 5.916-4.106 5.707-7.719z" fill="#ffde8a"/><path d="m409.42 142.93c-1.34 20.93-6.24 43.47-18.03 63.73-13.16 22.62-33.05 39.2-59.31 49.48-64.03 0-74.66 41.207-76.08 53.827-1.42-12.62-12.05-53.827-76.08-53.827-26.26-10.28-46.15-26.86-59.31-49.48-9.19-15.79-14.19-32.96-16.59-49.68 6.86-10.49 33.34-44.27 89.83-43.77 75.6.66 83.76 54.18 153.14 54.18 8.83 0 16.77-1.14 23.82-2.96 19.94-5.15 32.81-15.76 38.61-21.5z" fill="#ffde8a"/><g fill="#efbb6a"><circle cx="174.413" cy="192.575" r="7.5"/><circle cx="216.674" cy="166.735" r="7.5"/><circle cx="256.044" cy="338.445" r="7.5"/><circle cx="215.283" cy="409.585" r="7.5"/></g><g fill="#9887af"><path d="m428.31 16.48-3.08 55.93c-.11 2.06-1.07 3.98-2.65 5.32-1.36 1.14-3.07 1.76-4.84 1.76-.28 0-.56-.01-.85-.04-.24-.03-8.35-.94-22.2-2.16-28.27-2.47-80.49-6.19-138.69-6.19-86.73 0-160.16 8.26-160.89 8.35-2.05.23-4.11-.39-5.69-1.72-1.58-1.34-2.54-3.26-2.65-5.32l-3.08-55.93c-.22-3.97 2.69-7.42 6.64-7.86.76-.09 77-8.62 165.67-8.62 58.61 0 111.78 3.73 141.32 6.28 15.16 1.31 24.09 2.31 24.35 2.34 3.95.44 6.86 3.89 6.64 7.86z"/><path d="m421.67 503.39c-.28.03-10.78 1.21-28.37 2.68-30.19 2.53-81.27 5.93-137.3 5.93-88.66 0-164.91-8.52-165.67-8.61-3.95-.45-6.86-3.9-6.64-7.86l3.08-55.93c.11-2.06 1.07-3.98 2.65-5.32 1.58-1.33 3.63-1.95 5.68-1.72.74.09 74.39 8.34 160.9 8.34 53.77 0 102.57-3.19 131.98-5.62 17.92-1.48 28.64-2.68 28.92-2.72 2.04-.23 4.1.39 5.68 1.72 1.58 1.34 2.54 3.26 2.65 5.32l3.08 55.93c.22 3.96-2.69 7.41-6.64 7.86z"/></g><path d="m409.42 142.93c-1.34 20.93-6.24 43.47-18.03 63.73-13.16 22.62-33.05 39.2-59.31 49.48 22.48-31.82 33.87-63.22 38.73-91.71 19.94-5.15 32.81-15.76 38.61-21.5z" fill="#efbb6a"/><g fill="#756391"><path d="m428.31 16.48-3.08 55.93c-.11 2.06-1.07 3.98-2.65 5.32-1.36 1.14-3.07 1.76-4.84 1.76-.28 0-.56-.01-.85-.04-.24-.03-8.35-.94-22.2-2.16 4.97-36 3.4-62.33 2.63-71.01 15.16 1.31 24.09 2.31 24.35 2.34 3.95.44 6.86 3.89 6.64 7.86z"/><path d="m421.67 503.39c-.28.03-10.78 1.21-28.37 2.68-.62-32.03-4.16-61.78-5.32-70.79 17.92-1.48 28.64-2.68 28.92-2.72 2.04-.23 4.1.39 5.68 1.72 1.58 1.34 2.54 3.26 2.65 5.32l3.08 55.93c.22 3.96-2.69 7.41-6.64 7.86z"/></g></g></svg>