<svg width="80" height="80" viewBox="0 0 80 80" fill="none" xmlns="http://www.w3.org/2000/svg"><path d="M40 56.844A16.843 16.843 0 1156.844 40 16.858 16.858 0 0140 56.844zm39.578-11.055c.282-1.926.423-3.871.422-5.818a39.248 39.248 0 00-.291-4.742h-8.436a31.506 31.506 0 00-5.28-13.236L71.985 16a40.494 40.494 0 00-7.374-7.505l-6.007 6.05a31.637 31.637 0 00-13.339-5.629V.364a38.298 38.298 0 00-10.53 0v8.494a31.636 31.636 0 00-13.339 5.688L15.39 8.48A40.496 40.496 0 008.015 16l6.036 6.036a31.505 31.505 0 00-5.324 13.222H.291A39.273 39.273 0 000 40a40.03 40.03 0 00.422 5.818H8.96a31.286 31.286 0 005.585 12.786L8.48 64.61A40.043 40.043 0 0016 71.985l6.036-6.036a31.185 31.185 0 0012.713 5.193v8.509a39.88 39.88 0 0010.531 0v-8.51a31.185 31.185 0 0012.713-5.192L64 71.986a40.044 40.044 0 007.505-7.375l-6.05-6.007a31.287 31.287 0 005.527-12.815h8.596z" fill="#fff"/></svg>