<svg xmlns="http://www.w3.org/2000/svg" width="242" height="242" viewBox="0 0 200 200"><path fill="#fff" d="M0 0h200v200H0z"/><path fill="#acaea4" d="M100 57.1l-36 36 7.5 7.5L100 72.1z"/><path fill="#d0d3c7" d="M100 57.1v15l28.6 28.5 7.5-7.5z"/><path fill="#acaea4" d="M100 163.2v15l70.7-70.7.1-15.1z"/><path fill="#d0d3c7" d="M100 163.2L29.2 92.5v15l70.8 70.7z"/><path fill="#f5f8ea" d="M100 21.8L29.2 92.5l70.7 70.7 70.7-70.7L100 21.8zm0 106.1L64.6 92.5 100 57.1l35.4 35.4-35.4 35.4z"/><path fill="#3e6b00" d="M0 157.1v15l28.6 28.5 7.5-7.5z"/><path fill="#4c8200" d="M70.7 200l.1-7.6-7.6 7.6z"/><path fill="#599900" d="M27.8 200h35.4l7.5-7.5L0 121.8v35.4l35.3 35.3z"/><path fill="#4c8200" d="M200 157.1l-36 36 7.5 7.5 28.5-28.5z"/><path fill="#3e6b00" d="M136.7 200l-7.5-7.5v7.5z"/><path fill="#599900" d="M172.1 200l-7.5-7.5 35.4-35.4v.1-35.4l-70.8 70.7 7.5 7.5z"/><path fill="#3e6b00" d="M129.2 0v7.5L200 78.2v-15L136.7 0z"/><path fill="#599900" d="M200 27.8v.1L172.1 0h-35.4L200 63.2z"/><path fill="#4c8200" d="M63.2 0L0 63.2v15L70.7 7.5V0z"/><path fill="#599900" d="M0 63.2L63.2 0H27.8L0 27.8z"/></svg>