<svg xmlns="http://www.w3.org/2000/svg" viewBox="0 0 403.04 403.04"><path d="M358.46 50.16a7.999 7.999 0 00-8.96 1.2c-49.6 44.48-84.8 32-122.4 0C192.78 22 148.78-1.36 80.86 42.24V16.56C80.86 7.414 73.446 0 64.3 0h-7.52c-9.146 0-16.56 7.414-16.56 16.56v369.92c0 9.146 7.414 16.56 16.56 16.56h7.52c9.146 0 16.56-7.414 16.56-16.56V219.92c11.76-8.64 59.76-39.2 116-11.04 34.48 17.28 65.2 18.64 91.2 4.16 62.8-34.88 74.24-150.08 74.72-154.96a8 8 0 00-4.32-7.92zm-293.52 336a.56.56 0 01-.56.56h-7.52a.56.56 0 01-.56-.56V16.56a.56.56 0 01.56-.56h7.52a.56.56 0 01.56.56v369.6zm215.44-187.12c-21.12 11.76-46.8 10.48-76.32-4.48-39.345-19.454-85.974-17.06-123.12 6.32V61.52c60.4-42.96 98.08-30.4 136 1.92 33.04 28.32 73.6 50.96 127.28 12.88-6.08 33.44-22.64 99.92-63.84 122.72z"/></svg>