<svg xmlns="http://www.w3.org/2000/svg" viewBox="0 0 512 512"><path d="M254.862 494.144l-41.607-122.362-113.979-29.426c-14.075-3.634-22.54-17.99-18.906-32.066 3.633-14.077 17.99-22.54 32.066-18.906l127.742 32.98a26.321 26.321 0 0118.34 17.012l46.184 135.821c4.68 13.763-2.683 28.714-16.446 33.394-13.782 4.686-28.72-2.702-33.394-16.447z" fill="#5f6e9b"/><path d="M223.318 316.32c-.001.072-.011.142-.011.215v175.806c0 10.857 8.802 19.659 19.659 19.659s19.659-8.802 19.659-19.659V316.535c0-.073-.01-.142-.011-.215h-39.296z" fill="#823214"/><path d="M113.618 484.818c-6.685 0-12.104-5.42-12.104-12.105v-98.928c0-6.685 5.419-12.105 12.104-12.105s12.104 5.42 12.104 12.105v98.928c0 6.685-5.419 12.105-12.104 12.105z" fill="#50555a"/><g fill="#ffb69e"><circle cx="141.88" cy="99.72" r="48.41"/><path d="M179.471 239.137c-2.303 0-4.611-.362-6.835-1.092l-71.796-23.546c-11.511-3.775-17.783-16.167-14.007-27.678 3.774-11.511 16.169-17.783 27.678-14.007l63.762 20.911 55.771-24.834c11.062-4.928 24.032.048 28.961 11.115 4.927 11.066-.049 24.033-11.116 28.96l-63.495 28.274a21.935 21.935 0 01-8.923 1.897z"/></g><path d="M165.212 365.009l-73.797 16.669a27.933 27.933 0 01-34.08-26.643l-2.971-137.599a55.147 55.147 0 0158.271-56.249l31.323 1.783c18.033 1.027 31.82 16.478 30.793 34.511l-3.5 61.467-2.863 50.287-3.176 55.774z" fill="#64afff"/><path d="M179.742 387.487H47.678c-9.146 0-16.864-6.802-18.013-15.876L4.138 170.042c-1.259-9.948 5.784-19.034 15.732-20.294 9.942-1.261 19.034 5.783 20.295 15.732l23.516 185.694h116.062c10.028 0 18.157 8.129 18.157 18.157-.001 10.027-8.13 18.156-18.158 18.156z" fill="#ff3c3c"/><path d="M156.044 508.455l-18.439-18.44H88.062l-18.439 18.44c-4.728 4.727-12.392 4.727-17.118 0-4.727-4.727-4.727-12.391-.001-17.118l21.985-21.985a12.107 12.107 0 018.56-3.545h59.571c3.211 0 6.289 1.275 8.56 3.545l21.985 21.985c4.726 4.727 4.726 12.391-.001 17.118-4.727 4.726-12.392 4.728-17.12 0z" fill="#80868c"/><path d="M347.733 81.418c8.158-8.342 12.927-18.409 12.927-29.249C360.659 23.357 326.988 0 285.451 0c-41.536 0-75.208 23.357-75.208 52.169 0 28.813 33.672 52.17 75.208 52.17 14.606 0 28.23-2.897 39.769-7.896l28.935 10.442c4.389 1.584 8.279-3.368 5.692-7.257l-12.114-18.21z" fill="#beebfa"/><path d="M440.736 316.32v176.021c0 10.857 8.802 19.659 19.659 19.659s19.659-8.802 19.659-19.659V316.32h-39.318z" fill="#823214"/><path d="M508.008 314.741a9.66 9.66 0 01-9.661 9.661H205.014a9.66 9.66 0 01-9.661-9.661v-34.925a9.66 9.66 0 019.661-9.661h293.333a9.66 9.66 0 019.661 9.661v34.925z" fill="#c8a06e"/><circle cx="142.46" cy="99.72" r="14.406" fill="#696e73"/><path d="M385.603 270.155h-66.345c-6.426 0-11.635-5.21-11.635-11.636s5.209-11.636 11.635-11.636h54.72l.094-105.589c.005-6.423 5.214-11.625 11.635-11.625h.01c6.426.006 11.631 5.22 11.625 11.646l-.103 117.214c-.006 6.423-5.214 11.626-11.636 11.626z" fill="#373c41"/><path d="M258.188 62.656h-12.675c-1.572 0-2.817-1.029-2.817-2.925 0-.433.108-1.029.434-1.625l12.513-24.539c.812-1.571 2.166-2.167 3.521-2.167 1.462 0 4.225 1.246 4.225 3.196 0 .325-.108.65-.271 1.029l-9.588 19.23h4.658v-3.792c0-1.788 2.113-2.546 4.226-2.546s4.225.758 4.225 2.546v3.792h2.33c1.733 0 2.6 1.95 2.6 3.9s-1.3 3.9-2.6 3.9h-2.33v5.742c0 1.733-2.112 2.6-4.225 2.6s-4.226-.867-4.226-2.6v-5.741zm15.328-4.117V44.184c0-9.317 5.796-12.784 13.271-12.784s13.325 3.467 13.325 12.784v14.355c0 9.318-5.85 12.784-13.325 12.784s-13.271-3.467-13.271-12.784zm18.146-14.355c0-3.738-1.842-5.417-4.875-5.417s-4.821 1.679-4.821 5.417v14.355c0 3.738 1.788 5.417 4.821 5.417 3.033 0 4.875-1.679 4.875-5.417V44.184zm25.782 18.472h-12.675c-1.572 0-2.817-1.029-2.817-2.925 0-.433.108-1.029.434-1.625l12.513-24.539c.812-1.571 2.166-2.167 3.521-2.167 1.462 0 4.225 1.246 4.225 3.196 0 .325-.108.65-.271 1.029l-9.588 19.23h4.658v-3.792c0-1.788 2.113-2.546 4.226-2.546s4.225.758 4.225 2.546v3.792h2.33c1.733 0 2.6 1.95 2.6 3.9s-1.3 3.9-2.6 3.9h-2.33v5.742c0 1.733-2.112 2.6-4.225 2.6s-4.226-.867-4.226-2.6v-5.741z" fill="#fff"/><path d="M151.648 273.951l-60.126-65.456c-8.195-8.922-7.607-22.797 1.316-30.992 8.921-8.195 22.799-7.606 30.992 1.315l52.806 57.487 77.136-6.866c12.07-1.075 22.718 7.838 23.793 19.904 1.074 12.066-7.837 22.719-19.904 23.793l-87.914 7.825a21.934 21.934 0 01-18.099-7.01z" fill="#ffb69e"/><path d="M161.081 219.371l-37.252-40.554c-8.193-8.921-22.07-9.511-30.992-1.316s-9.511 22.071-1.316 30.993l35.593 38.748 33.967-27.871z" fill="#7dbcff"/><path d="M175.765 144.283l-27.103-12.368v-30.787a5.508 5.508 0 10-11.016 0v33.578a6.805 6.805 0 003.98 6.18l29.749 13.574a5.54 5.54 0 007.531-3.212c.97-2.739-.497-5.759-3.141-6.965z" fill="#373c41"/><path d="M373.244 225.254a4.65 4.65 0 01-6.149 2.375l-25.441-11.343a4.65 4.65 0 01-2.363-6.118l70.352-159.982a4.65 4.65 0 016.149-2.375l25.441 11.343a4.65 4.65 0 012.363 6.118l-70.352 159.982z" fill="#696e73"/></svg>